<?xml version="1.0" encoding="UTF-8" standalone="no"?><svg xmlns="http://www.w3.org/2000/svg" xmlns:xlink="http://www.w3.org/1999/xlink" fill="#d9d9d9" height="48" preserveAspectRatio="xMidYMid meet" version="1" viewBox="0.0 0.0 58.0 48.0" width="58" zoomAndPan="magnify"><g id="change1_1"><path d="M54 18L16 18 16 19 16 20 54.001 20z" fill="inherit"/><path d="M26,1.371C26,0.615,25.386,0,24.63,0c-0.238,0-0.474,0.063-0.68,0.181C20.279,2.278,18,6.206,18,10.433V16h8V1.371z" fill="inherit"/><path d="M0,22.303c0,0.102,0.051,0.196,0.135,0.252l0.428,0.285C3.385,24.721,6.63,25.786,10,25.963V22H0.303 C0.136,22,0,22.136,0,22.303z" fill="inherit"/><path d="M14,20h-1c-0.552,0-1,0.449-1,1v6c0,0.552,0.448,1,1,1h1V20z" fill="inherit"/><path d="M54,22H16v6.546l6.483,5.674C23.447,35.062,24,36.279,24,37.561c0,0.901-0.273,1.739-0.737,2.439h13.848 C35.81,38.728,35,36.958,35,35c0-3.859,3.141-7,7-7h16v-8h-2C56,21.103,55.103,22,54,22z" fill="inherit"/><path d="M28 8H58V12H28z" fill="inherit"/><path d="M43,42h-1H19.561H19h-4c-0.552,0-1,0.448-1,1v4c0,0.552,0.448,1,1,1h28c0.552,0,1-0.448,1-1v-4C44,42.448,43.552,42,43,42z" fill="inherit"/></g></svg>